<?xml version="1.0" encoding="UTF-8"?>
<svg width="240" height="240" viewBox="0 0 240 240" fill="none" xmlns="http://www.w3.org/2000/svg">
  <!-- 背景円 -->
  <circle cx="120" cy="120" r="110" fill="#FFF9EA"/>
  
  <!-- リスの体 -->
  <ellipse cx="120" cy="130" rx="70" ry="80" fill="#FF8E3C"/>
  
  <!-- リスの尻尾 -->
  <path d="M180 100C180 100 200 70 190 40C190 40 150 60 160 100" fill="#FF8E3C"/>
  <path d="M180 100C180 100 200 70 190 40C190 40 150 60 160 100" stroke="#FF6B6B" stroke-width="4" stroke-linecap="round"/>
  
  <!-- リスの頭 -->
  <circle cx="120" cy="90" r="40" fill="#FF8E3C"/>
  
  <!-- リスの耳 -->
  <circle cx="90" cy="60" r="15" fill="#FF8E3C"/>
  <circle cx="150" cy="60" r="15" fill="#FF8E3C"/>
  <circle cx="90" cy="60" r="8" fill="#FFC0B0"/>
  <circle cx="150" cy="60" r="8" fill="#FFC0B0"/>
  
  <!-- リスの顔 -->
  <circle cx="105" cy="85" r="6" fill="#333333"/> <!-- 左目 -->
  <circle cx="135" cy="85" r="6" fill="#333333"/> <!-- 右目 -->
  <ellipse cx="120" cy="100" rx="8" ry="5" fill="#333333"/> <!-- 鼻 -->
  <path d="M105 115Q120 125 135 115" stroke="#333333" stroke-width="3" stroke-linecap="round"/> <!-- 口 -->
  
  <!-- リスの頬 -->
  <circle cx="90" cy="100" r="10" fill="#FFB8B8" fill-opacity="0.7"/>
  <circle cx="150" cy="100" r="10" fill="#FFB8B8" fill-opacity="0.7"/>
  
  <!-- ひまわりの種（メモ） -->
  <ellipse cx="95" cy="160" rx="20" ry="12" transform="rotate(-15 95 160)" fill="#FFE0A3" stroke="#CC9966" stroke-width="2"/>
  <ellipse cx="145" cy="160" rx="20" ry="12" transform="rotate(15 145 160)" fill="#FFE0A3" stroke="#CC9966" stroke-width="2"/>
  
  <!-- 知恵の実 -->
  <circle cx="120" cy="180" r="15" fill="#4D96FF"/>
  <path d="M115 175L120 170L125 175L120 180L115 175Z" fill="#FFF9EA"/>
  
  <!-- テキスト "PocoNest" -->
  <path d="M70 210C70 210 90 230 120 230C150 230 170 210 170 210" stroke="#FF6B6B" stroke-width="6" stroke-linecap="round"/>
</svg> 